<?xml version="1.0" encoding="UTF-8"?>
<svg id="Capa_1" data-name="Capa 1" xmlns="http://www.w3.org/2000/svg" viewBox="0 0 85.71 78.68">
  <defs>
    <style>
      .cls-1 {
        fill: #e30613;
      }
    </style>
  </defs>
  <path class="cls-1" d="M0,46.49c.41-3.89,3.88-7.36,7.91-8.02,3.03-.49,5.72,.24,8.11,2.14,3.88,3.08,6.98,6.78,9.01,11.33,.09,.2,.22,.39,.38,.68,1.04-1.43,2.01-2.8,3.01-4.16,8.79-11.88,18.58-22.86,29.79-32.53,6.91-5.97,14.27-11.3,22.47-15.39,1.7-.85,3.36-.69,5.02,.42-1.45,1.31-2.84,2.53-4.2,3.8-9.25,8.65-17.68,18.04-25.51,27.98-7.94,10.07-15.17,20.63-21.57,31.74-2.28,3.97-4.42,8.02-6.59,12.05-.71,1.32-1.66,2.2-3.21,2.15-1.55-.05-2.46-.97-3.08-2.34-3.68-8.26-7.49-16.46-12.1-24.25-.56-.95-1.15-1.9-1.79-2.8-1.76-2.49-4.13-3.5-7.15-2.88-.14,.03-.29,.04-.51,.07Z"/>
</svg>