<?xml version="1.0" encoding="UTF-8"?>
<svg id="Capa_1" data-name="Capa 1" xmlns="http://www.w3.org/2000/svg" viewBox="0 0 39 75.41">
  <defs>
    <style>
      .cls-1 {
        fill: #fff;
      }
    </style>
  </defs>
  <path class="cls-1" d="M25.41,75.41H11.5V41.04H0v-13.37H11.51c0-1.23-.03-2.29,0-3.35,.11-3.68-.11-7.41,.44-11.02C13.14,5.49,18.79,.56,26.99,.08c3.95-.23,7.94,.13,12.01,.22V12.52c-1.49,0-2.94-.02-4.4,0-1.37,.02-2.75,.03-4.12,.12-3.1,.2-4.87,1.82-5.02,4.89-.15,3.28-.03,6.58-.03,10.06h13.22c-.59,4.57-1.15,8.93-1.73,13.43h-11.51v34.39Z"/>
</svg>