<?xml version="1.0" encoding="UTF-8"?>
<svg id="Capa_1" data-name="Capa 1" xmlns="http://www.w3.org/2000/svg" viewBox="0 0 158.85 159.6">
  <defs>
    <style>
      .cls-1 {
        fill: #e30613;
      }
    </style>
  </defs>
  <path class="cls-1" d="M108.63,60.22v39.15H50.76V60.22h57.87Z"/>
  <path class="cls-1" d="M106.57,49.58H52.58c3.14-16.72,6.84-32.84,18.99-45.34,5.61-5.77,10.19-5.53,16.02-.01,2.5,2.37,4.69,5.22,6.49,8.17,6.85,11.27,10.29,23.7,12.5,37.18Z"/>
  <path class="cls-1" d="M52.6,110.29h53.98c-2.81,15.73-6.62,30.69-16.78,43.05-7.12,8.67-14.29,8.28-21.27-.9-9.33-12.27-13.26-26.66-15.94-42.15Z"/>
  <path class="cls-1" d="M119.66,99.75V60.03h25.1c13.05,0,13.43-.02,14.02,13.35,.34,7.58-.68,15.23-1.42,22.82-.12,1.27-1.96,3.37-3.04,3.39-11.46,.25-22.92,.15-34.66,.15Z"/>
  <path class="cls-1" d="M39.57,99.51H2.48c-3.32-13.05-3.26-25.96-.06-39.18H39.57v39.18Z"/>
  <path class="cls-1" d="M100.9,3.02c25.19,8.02,41.98,23.06,52.13,46.43h-35.13c-3.06-15.88-7.01-31.49-16.99-46.43Z"/>
  <path class="cls-1" d="M58.29,2.99c-9.89,14.84-13.98,30.39-16.97,46.51H6.15C16.16,26.16,33.04,11.09,58.29,2.99Z"/>
  <path class="cls-1" d="M6.55,110.16H41.26c3.04,16.03,7.04,31.76,16.44,45.76-19.65-2.72-44.66-25.07-51.16-45.76Z"/>
  <path class="cls-1" d="M119.34,110.2h32.88c-2.6,16.97-31.31,43.3-48.29,45.27,4.93-14.49,10.03-29.44,15.42-45.27Z"/>
</svg>