<?xml version="1.0" encoding="UTF-8"?>
<svg id="Capa_1" data-name="Capa 1" xmlns="http://www.w3.org/2000/svg" viewBox="0 0 90.11 95.1">
  <defs>
    <style>
      .cls-1 {
        fill: #fff;
      }
    </style>
  </defs>
  <path class="cls-1" d="M18.81,0c0,.27,.03,.53,.03,.8,0,12.58,0,25.16,0,37.74v.78H4.32c-.01-.21-.04-.41-.04-.61,0-12.71,0-25.43,0-38.14,0-.19,.02-.38,.03-.57,4.83,0,9.67,0,14.5,0Z"/>
  <path class="cls-1" d="M70.54,8.34c3.15,3.15,6.34,6.34,9.52,9.52-12.31,12.31-24.66,24.66-36.96,36.96-3.17-3.17-6.36-6.36-9.52-9.52,12.3-12.3,24.65-24.65,36.96-36.96Z"/>
  <path class="cls-1" d="M90.09,81.23H48.83v-12.98c.19,0,.39,0,.59,0,13.34,0,26.67,0,40.01-.01,.52,0,.67,.12,.67,.66-.02,3.9-.01,7.8-.01,11.7,0,.19,0,.37,0,.63Z"/>
  <path class="cls-1" d="M8.86,50.61c-3.09-.04-6.05,.36-8.86,1.11v14.99c2.53-1.32,5.4-2.08,8.43-2.08,10.14,0,18.43,8.26,18.4,18.41-.02,4.66-1.74,8.86-4.54,12.07h16.22c1.49-3.73,2.32-7.79,2.32-12.06,.08-17.6-14.1-32.22-31.96-32.43Z"/>
</svg>