<?xml version="1.0" encoding="UTF-8"?>
<svg id="Capa_1" data-name="Capa 1" xmlns="http://www.w3.org/2000/svg" viewBox="0 0 236.2 236.23">
  <defs>
    <style>
      .cls-1 {
        fill: #fff;
      }
    </style>
  </defs>
  <path class="cls-1" d="M118.07,.02c16.66,0,33.32-.04,49.98,.01,37.44,.12,68.05,30.68,68.12,68.07,.06,33.32,.06,66.64,0,99.95-.06,37.37-30.71,68.05-68.07,68.13-33.32,.06-66.64,.07-99.95,0C30.75,236.1,.03,205.36,.01,168.1c-.01-32.65-.03-65.3,0-97.95C.06,29.89,29.9,.04,70.09,.01c15.99-.01,31.99,0,47.98,0Zm96.96,118.15c0-17,.11-34-.03-50.99-.19-24.49-21.22-45.83-45.6-45.96-34.16-.19-68.33-.19-102.49,0-24.45,.13-45.63,21.42-45.72,45.81-.13,33.83-.15,67.66-.01,101.49,.1,25.4,21.21,46.43,46.59,46.51,33.33,.11,66.66,.1,99.99,0,26.32-.07,47.13-20.97,47.27-47.36,.09-16.5,.02-33,0-49.5Z"/>
  <path class="cls-1" d="M117.89,178.58c-33.85-.22-60.46-27.05-60.31-60.82,.15-33.48,27.07-60.28,60.46-60.19,34.06,.1,60.76,27.03,60.55,61.09-.21,33.41-27.27,60.13-60.69,59.92Zm39.81-60.55c-.09-21.7-18.34-39.8-39.92-39.6-21.44,.2-39.34,18.27-39.33,39.71,0,21.6,18.31,39.73,39.95,39.57,21.44-.16,39.39-18.28,39.3-39.67Z"/>
  <path class="cls-1" d="M180.93,40.99c8.01-.1,14.17,5.97,14.27,14.06,.1,7.57-6.26,13.96-13.89,13.97-7.73,0-14.06-6.45-14.1-14.38-.04-7.22,6.32-13.56,13.72-13.65Z"/>
</svg>