<?xml version="1.0" encoding="UTF-8"?>
<svg id="Capa_1" data-name="Capa 1" xmlns="http://www.w3.org/2000/svg" viewBox="0 0 159.06 159.76">
  <defs>
    <style>
      .cls-1 {
        fill: #e30613;
      }
    </style>
  </defs>
  <path class="cls-1" d="M95.01,90.23h13.86c.12,1.59,.31,3.04,.31,4.48,.02,14.33,.06,28.66,0,43-.06,13.83-8.29,22-22.19,22.03-21.66,.04-43.33,.05-64.99,0-13.85-.03-21.97-8.2-21.98-22.16C0,99.08,0,60.58,.03,22.08,.04,8.17,8.18,.06,22.11,.02c15.47-.04,30.94,0,46.75,0V14.74c-1.81,0-3.58,0-5.35,0-14,0-28-.02-42,0-5.83,.01-7.29,1.33-7.29,6.88-.03,38.83-.03,77.66,0,116.49,0,5.41,1.46,6.86,6.8,6.87,22.33,.04,44.66,.03,66.99,0,5.5,0,6.95-1.5,6.98-7.27,.06-13.66,.02-27.33,.02-41,0-1.99,0-3.98,0-6.5Z"/>
  <path class="cls-1" d="M159.03,69.28c.43,7.9-4.55,12.75-9.94,9.25-2.15-1.4-3.76-5.03-3.97-7.78-1.35-17.69-8.15-32.44-22.13-43.63-9.81-7.85-21.07-11.81-33.57-12.36-5.8-.26-8.68-2.19-9.25-6.38-.7-5.14,3.13-8.59,9.22-8.3,37.91,1.8,67.55,31.26,69.63,69.2Z"/>
  <path class="cls-1" d="M129.14,70.45c.2,5.25-2.26,8.7-6.52,9.13-4.11,.42-6.98-2.6-7.62-8.02-1.94-16.25-11.06-25.29-27.07-26.84-5.2-.5-8.1-3.42-7.8-7.86,.29-4.35,3.79-7.05,8.81-6.8,21.68,1.05,39.38,18.84,40.2,40.38Z"/>
  <path class="cls-1" d="M89.43,60.03c5.34-.07,9.73,4.36,9.74,9.84,0,5.48-4.38,9.92-9.72,9.85-5.28-.07-9.28-4.15-9.39-9.59-.12-5.68,3.91-10.02,9.38-10.1Z"/>
  <path class="cls-1" d="M54.79,125.06c3.16,0,6.48-.57,9.44,.2,1.89,.5,4.51,2.97,4.52,4.58,.02,1.6-2.71,4.47-4.42,4.62-6.45,.56-13,.55-19.44,.01-1.71-.14-4.42-2.96-4.44-4.57-.01-1.6,2.55-4.18,4.4-4.63,3.14-.77,6.61-.21,9.94-.21Z"/>
</svg>